# Blender 4.3.2
# www.blender.org
mtllib transistor_92.mtl
o transistor-92
v -0.001145 0.017830 -0.001038
v -0.001145 0.012500 -0.001038
v 0.002489 0.012500 0.000656
v 0.002489 0.017830 0.000656
v 0.002475 0.012500 0.001863
v 0.002061 0.012500 0.002752
v 0.002305 0.012500 0.002325
v 0.002061 0.017830 0.002752
v 0.002475 0.017830 0.001863
v 0.002305 0.017830 0.002325
v 0.002052 0.012500 0.002764
v 0.001329 0.012500 0.003426
v 0.001718 0.012500 0.003125
v 0.001329 0.017830 0.003426
v 0.002052 0.017830 0.002764
v 0.001718 0.017830 0.003125
v 0.001317 0.012500 0.003434
v 0.000395 0.012500 0.003769
v 0.000870 0.012500 0.003640
v 0.000395 0.017830 0.003769
v 0.001317 0.017830 0.003434
v 0.000870 0.017830 0.003640
v 0.000381 0.012500 0.003771
v -0.000599 0.012500 0.003729
v -0.000111 0.012500 0.003790
v -0.000599 0.017830 0.003729
v 0.000381 0.017830 0.003771
v -0.000111 0.017830 0.003790
v -0.000613 0.012500 0.003725
v -0.001502 0.012500 0.003311
v -0.001075 0.012500 0.003555
v -0.001502 0.017830 0.003311
v -0.000613 0.017830 0.003725
v -0.001075 0.017830 0.003555
v -0.001514 0.012500 0.003302
v -0.002176 0.012500 0.002579
v -0.001875 0.012500 0.002968
v -0.002176 0.017830 0.002579
v -0.001514 0.017830 0.003302
v -0.001875 0.017830 0.002968
v -0.002184 0.012500 0.002567
v -0.002519 0.012500 0.001645
v -0.002390 0.012500 0.002120
v -0.002519 0.017830 0.001645
v -0.002184 0.017830 0.002567
v -0.002390 0.017830 0.002120
v -0.002521 0.012500 0.001631
v -0.002479 0.012500 0.000651
v -0.002540 0.012500 0.001139
v -0.002479 0.017830 0.000651
v -0.002521 0.017830 0.001631
v -0.002540 0.017830 0.001139
v -0.002475 0.012500 0.000637
v -0.002061 0.012500 -0.000252
v -0.002305 0.012500 0.000175
v -0.002061 0.017830 -0.000252
v -0.002475 0.017830 0.000637
v -0.002305 0.017830 0.000175
v -0.002052 0.012500 -0.000264
v -0.001329 0.012500 -0.000926
v -0.001718 0.012500 -0.000625
v -0.001329 0.017830 -0.000926
v -0.002052 0.017830 -0.000264
v -0.001718 0.017830 -0.000625
v 0.002521 0.012500 0.000869
v 0.002479 0.012500 0.001849
v 0.002540 0.012500 0.001361
v 0.002479 0.017830 0.001849
v 0.002521 0.017830 0.000869
v 0.002540 0.017830 0.001361
vn 0.9713 -0.0000 0.2377
vn 0.1521 -0.0000 0.9884
vn -0.2377 -0.0000 0.9713
vn -0.5913 -0.0000 0.8064
vn -0.8549 -0.0000 0.5188
vn -0.9884 -0.0000 0.1521
vn -0.9713 -0.0000 -0.2377
vn -0.8064 -0.0000 -0.5913
vn -0.5188 -0.0000 -0.8549
vn 0.9884 -0.0000 -0.1521
vn 0.5188 -0.0000 0.8549
vn -0.0000 1.0000 -0.0000
vn 0.8064 -0.0000 0.5913
vn 0.4226 -0.0000 -0.9063
vn 0.9063 -0.0000 0.4226
vn 0.6756 -0.0000 0.7373
vn 0.1522 -0.0000 0.9884
vn 0.3420 -0.0000 0.9397
vn 0.5187 -0.0000 0.8549
vn -0.2376 -0.0000 0.9714
vn -0.0436 -0.0000 0.9990
vn -0.4226 -0.0000 0.9063
vn -0.7373 -0.0000 0.6756
vn -0.9884 -0.0000 0.1522
vn -0.9397 -0.0000 0.3420
vn -0.8549 -0.0000 0.5187
vn -0.9714 -0.0000 -0.2376
vn -0.9990 -0.0000 -0.0436
vn -0.8065 -0.0000 -0.5913
vn -0.9063 -0.0000 -0.4226
vn -0.6756 -0.0000 -0.7373
vn 0.9714 -0.0000 0.2376
vn 0.9990 -0.0000 0.0436
vn -0.0000 -1.0000 -0.0000
vt 0.031696 0.500000
vt 0.031696 1.000000
vt 0.030804 1.000000
vt 0.030804 0.500000
vt 0.844196 0.500000
vt 0.844196 1.000000
vt 0.843304 1.000000
vt 0.843304 0.500000
vt 0.781696 0.500000
vt 0.781696 1.000000
vt 0.780804 1.000000
vt 0.780804 0.500000
vt 0.719196 0.500000
vt 0.719196 1.000000
vt 0.718304 1.000000
vt 0.718304 0.500000
vt 0.656696 0.500000
vt 0.656696 1.000000
vt 0.655804 1.000000
vt 0.655804 0.500000
vt 0.594196 0.500000
vt 0.594196 1.000000
vt 0.593304 1.000000
vt 0.593304 0.500000
vt 0.531696 0.500000
vt 0.531696 1.000000
vt 0.530804 1.000000
vt 0.530804 0.500000
vt 0.469196 0.500000
vt 0.469196 1.000000
vt 0.468304 1.000000
vt 0.468304 0.500000
vt 0.406696 0.500000
vt 0.406696 1.000000
vt 0.393411 1.000000
vt 0.393411 0.500000
vt 0.106589 0.500000
vt 0.106589 1.000000
vt 0.093304 1.000000
vt 0.093304 0.500000
vt 0.906696 0.500000
vt 0.906696 1.000000
vt 0.905804 1.000000
vt 0.905804 0.500000
vt 0.380220 0.446089
vt 0.339826 0.466858
vt 0.296577 0.480735
vt 0.295267 0.480996
vt 0.250000 0.484726
vt 0.204733 0.480996
vt 0.203423 0.480735
vt 0.160175 0.466858
vt 0.119781 0.446089
vt 0.103231 0.435031
vt 0.103231 0.064969
vt 0.119780 0.053911
vt 0.160175 0.033142
vt 0.203423 0.019265
vt 0.204733 0.019004
vt 0.250000 0.015275
vt 0.295267 0.019004
vt 0.296577 0.019265
vt 0.339826 0.033142
vt 0.380220 0.053911
vt 0.381330 0.054653
vt 0.415976 0.084024
vt 0.445347 0.118670
vt 0.446089 0.119780
vt 0.466858 0.160174
vt 0.480735 0.203423
vt 0.480996 0.204733
vt 0.484725 0.250000
vt 0.480996 0.295267
vt 0.480735 0.296577
vt 0.466858 0.339826
vt 0.446089 0.380220
vt 0.445347 0.381330
vt 0.415976 0.415976
vt 0.381330 0.445347
vt 0.969196 0.500000
vt 0.969196 1.000000
vt 0.968304 1.000000
vt 0.968304 0.500000
vt 0.413218 0.567911
vt 0.556201 0.567911
vt 0.556201 0.623740
vt 0.413218 0.623740
vt 0.000000 1.000000
vt 0.000000 0.500000
vt 1.000000 0.500000
vt 1.000000 1.000000
vt 0.937500 0.500000
vt 0.937500 1.000000
vt 0.875000 0.500000
vt 0.875000 1.000000
vt 0.812500 0.500000
vt 0.812500 1.000000
vt 0.750000 0.500000
vt 0.750000 1.000000
vt 0.687500 0.500000
vt 0.687500 1.000000
vt 0.625000 0.500000
vt 0.625000 1.000000
vt 0.562500 0.500000
vt 0.562500 1.000000
vt 0.500000 0.500000
vt 0.500000 1.000000
vt 0.437500 0.500000
vt 0.437500 1.000000
vt 0.062500 0.500000
vt 0.062500 1.000000
vt 0.704733 0.480996
vt 0.750000 0.484726
vt 0.795267 0.480996
vt 0.796577 0.480735
vt 0.839826 0.466858
vt 0.880220 0.446089
vt 0.881330 0.445347
vt 0.915976 0.415976
vt 0.945347 0.381330
vt 0.946089 0.380220
vt 0.966858 0.339826
vt 0.980735 0.296577
vt 0.980996 0.295267
vt 0.984725 0.250000
vt 0.980996 0.204733
vt 0.980735 0.203423
vt 0.966858 0.160174
vt 0.946089 0.119780
vt 0.945347 0.118670
vt 0.915976 0.084024
vt 0.881330 0.054653
vt 0.880220 0.053911
vt 0.839825 0.033142
vt 0.796577 0.019265
vt 0.795267 0.019004
vt 0.750000 0.015275
vt 0.704733 0.019004
vt 0.703423 0.019265
vt 0.660175 0.033142
vt 0.619781 0.053911
vt 0.603231 0.064969
vt 0.603231 0.435031
vt 0.619781 0.446089
vt 0.660175 0.466858
vt 0.703423 0.480735
s 1
usemtl Plastic
f 66/1/1 68/2/1 9/3/1 5/4/1
f 18/5/2 20/6/2 27/7/2 23/8/2
f 24/9/3 26/10/3 33/11/3 29/12/3
f 30/13/4 32/14/4 39/15/4 35/16/4
f 36/17/5 38/18/5 45/19/5 41/20/5
f 42/21/6 44/22/6 51/23/6 47/24/6
f 48/25/7 50/26/7 57/27/7 53/28/7
f 54/29/8 56/30/8 63/31/8 59/32/8
f 60/33/9 62/34/9 1/35/9 2/36/9
f 3/37/10 4/38/10 69/39/10 65/40/10
f 12/41/11 14/42/11 21/43/11 17/44/11
f 14/45/12 16/46/12 15/47/12 8/48/12 10/49/12 9/50/12 68/51/12 70/52/12 69/53/12 4/54/12 1/55/12 62/56/12 64/57/12 63/58/12 56/59/12 58/60/12 57/61/12 50/62/12 52/63/12 51/64/12 44/65/12 46/66/12 45/67/12 38/68/12 40/69/12 39/70/12 32/71/12 34/72/12 33/73/12 26/74/12 28/75/12 27/76/12 20/77/12 22/78/12 21/79/12
f 6/80/13 8/81/13 15/82/13 11/83/13
f 2/84/14 1/85/14 4/86/14 3/87/14
f 5/4/1 9/3/1 10/88/15 7/89/15
f 7/90/15 10/91/15 8/81/13 6/80/13
f 14/42/11 12/41/11 13/92/16 16/93/16
f 16/93/16 13/92/16 11/83/13 15/82/13
f 20/6/17 18/5/17 19/94/18 22/95/18
f 22/95/18 19/94/18 17/44/19 21/43/19
f 26/10/20 24/9/20 25/96/21 28/97/21
f 28/97/21 25/96/21 23/8/2 27/7/2
f 32/14/4 30/13/4 31/98/22 34/99/22
f 34/99/22 31/98/22 29/12/3 33/11/3
f 38/18/5 36/17/5 37/100/23 40/101/23
f 40/101/23 37/100/23 35/16/4 39/15/4
f 44/22/24 42/21/24 43/102/25 46/103/25
f 46/103/25 43/102/25 41/20/26 45/19/26
f 50/26/27 48/25/27 49/104/28 52/105/28
f 52/105/28 49/104/28 47/24/6 51/23/6
f 56/30/29 54/29/29 55/106/30 58/107/30
f 58/107/30 55/106/30 53/28/7 57/27/7
f 62/34/9 60/33/9 61/108/31 64/109/31
f 64/109/31 61/108/31 59/32/8 63/31/8
f 68/2/32 66/1/32 67/110/33 70/111/33
f 70/111/33 67/110/33 65/40/10 69/39/10
f 5/112/34 7/113/34 6/114/34 11/115/34 13/116/34 12/117/34 17/118/34 19/119/34 18/120/34 23/121/34 25/122/34 24/123/34 29/124/34 31/125/34 30/126/34 35/127/34 37/128/34 36/129/34 41/130/34 43/131/34 42/132/34 47/133/34 49/134/34 48/135/34 53/136/34 55/137/34 54/138/34 59/139/34 61/140/34 60/141/34 2/142/34 3/143/34 65/144/34 67/145/34 66/146/34
o Legs.004
v 0.002492 0.000500 0.002412
v 0.002160 0.000500 0.002533
v 0.002039 0.000500 0.002201
v 0.002371 0.000500 0.002080
v 0.001359 0.012500 0.001884
v 0.001027 0.012500 0.002005
v 0.000906 0.012500 0.001673
v 0.001239 0.012500 0.001552
v -0.002039 0.000500 0.000299
v -0.002371 0.000500 0.000420
v -0.002492 0.000500 0.000088
v -0.002160 0.000500 -0.000033
v -0.000906 0.012500 0.000827
v -0.001239 0.012500 0.000948
v -0.001359 0.012500 0.000616
v -0.001027 0.012500 0.000495
v 0.000227 0.000500 0.001356
v -0.000106 0.000500 0.001477
v -0.000227 0.000500 0.001144
v 0.000106 0.000500 0.001023
v 0.000227 0.012500 0.001356
v -0.000106 0.012500 0.001477
v -0.000227 0.012500 0.001144
v 0.000106 0.012500 0.001023
v 0.000227 0.012500 0.001356
v -0.000106 0.012500 0.001477
v -0.000227 0.012500 0.001144
v 0.000106 0.012500 0.001023
v 0.000227 0.000500 0.001356
v -0.000106 0.000500 0.001477
v -0.000227 0.000500 0.001144
v 0.000106 0.000500 0.001023
v -0.000906 0.012500 0.000827
v -0.001239 0.012500 0.000948
v -0.001359 0.012500 0.000616
v -0.001027 0.012500 0.000495
v -0.000908 0.011381 0.000826
v -0.001249 0.011500 0.000971
v -0.001358 0.011619 0.000617
v -0.001017 0.011500 0.000472
v -0.002041 0.010381 0.000298
v -0.002382 0.010500 0.000443
v -0.002490 0.010619 0.000089
v -0.002150 0.010500 -0.000056
v -0.002039 0.000500 0.000299
v -0.002371 0.000500 0.000420
v -0.002492 0.000500 0.000088
v -0.002160 0.000500 -0.000033
v 0.001359 0.012500 0.001884
v 0.001027 0.012500 0.002005
v 0.000906 0.012500 0.001673
v 0.001239 0.012500 0.001552
v 0.001358 0.011619 0.001883
v 0.001017 0.011500 0.002028
v 0.000908 0.011381 0.001674
v 0.001249 0.011500 0.001529
v 0.002490 0.010619 0.002411
v 0.002150 0.010500 0.002556
v 0.002041 0.010381 0.002202
v 0.002382 0.010500 0.002057
v 0.002492 0.000500 0.002412
v 0.002160 0.000500 0.002533
v 0.002039 0.000500 0.002201
v 0.002371 0.000500 0.002080
vn -0.0000 -1.0000 -0.0000
vn -0.0000 1.0000 -0.0000
vn 0.9397 -0.0000 -0.3420
vn 0.3420 -0.0000 0.9397
vn -0.9397 -0.0000 0.3420
vn -0.3420 -0.0000 -0.9397
vn 0.9488 0.0074 -0.3158
vn 0.3679 0.0074 0.9298
vn -0.9480 0.0083 0.3183
vn -0.3655 0.0083 -0.9308
vn 0.7035 -0.5800 -0.4107
vn 0.1376 -0.5800 0.8029
vn -0.7035 0.5800 0.4107
vn -0.1376 0.5800 -0.8029
vn 0.9484 -0.0008 -0.3171
vn 0.3667 -0.0008 0.9303
vn -0.9485 -0.0008 0.3169
vn -0.3669 -0.0008 -0.9302
vn 0.9480 0.0083 -0.3183
vn 0.3655 0.0083 0.9308
vn -0.9488 0.0074 0.3158
vn -0.3679 0.0074 -0.9298
vn 0.7035 0.5800 -0.4107
vn 0.1376 0.5800 0.8029
vn -0.7035 -0.5800 0.4107
vn -0.1376 -0.5800 -0.8029
vn 0.9485 -0.0008 -0.3169
vn 0.3669 -0.0008 0.9302
vn -0.9484 -0.0008 0.3171
vn -0.3667 -0.0008 -0.9303
vt 0.333333 0.000000
vt 1.000000 0.000000
vt 0.000000 0.000000
vt 0.666667 0.000000
vt 0.000000 1.000000
vt 1.000000 1.000000
vt 1.000000 0.750000
vt 0.000000 0.750000
vt 0.000000 0.250000
vt 1.000000 0.250000
vt 0.000000 0.500000
vt 1.000000 0.500000
vt 0.333333 1.000000
vt 0.333333 0.750000
vt 0.333333 0.250000
vt 0.333333 0.500000
vt 0.666667 1.000000
vt 0.666667 0.750000
vt 0.666667 0.250000
vt 0.666667 0.500000
s 0
usemtl Metal
f 72/147/35 74/148/35 71/149/35
f 73/150/35 74/148/35 72/147/35
f 76/147/36 78/148/36 77/150/36
f 75/149/36 78/148/36 76/147/36
f 80/147/35 82/148/35 79/149/35
f 81/150/35 82/148/35 80/147/35
f 86/148/36 84/147/36 83/149/36
f 85/150/36 84/147/36 86/148/36
f 88/147/35 90/148/35 87/149/35
f 88/147/35 89/150/35 90/148/35
f 94/148/36 92/147/36 91/149/36
f 93/150/36 92/147/36 94/148/36
f 95/151/37 99/152/37 102/153/37 98/154/37
f 96/155/38 100/156/38 99/148/38 95/149/38
f 97/157/39 101/158/39 100/156/39 96/155/39
f 98/154/40 102/153/40 101/158/40 97/157/40
f 103/151/41 107/159/41 110/160/41 106/154/41
f 104/155/42 108/161/42 107/147/42 103/149/42
f 105/157/43 109/162/43 108/161/43 104/155/43
f 106/154/44 110/160/44 109/162/44 105/157/44
f 107/159/45 111/163/45 114/164/45 110/160/45
f 108/161/46 112/165/46 111/150/46 107/147/46
f 109/162/47 113/166/47 112/165/47 108/161/47
f 110/160/48 114/164/48 113/166/48 109/162/48
f 111/163/49 115/152/49 118/153/49 114/164/49
f 112/165/50 116/156/50 115/148/50 111/150/50
f 113/166/51 117/158/51 116/156/51 112/165/51
f 114/164/52 118/153/52 117/158/52 113/166/52
f 119/151/53 123/159/53 126/160/53 122/154/53
f 120/155/54 124/161/54 123/147/54 119/149/54
f 121/157/55 125/162/55 124/161/55 120/155/55
f 122/154/56 126/160/56 125/162/56 121/157/56
f 123/159/57 127/163/57 130/164/57 126/160/57
f 124/161/58 128/165/58 127/150/58 123/147/58
f 125/162/59 129/166/59 128/165/59 124/161/59
f 126/160/60 130/164/60 129/166/60 125/162/60
f 127/163/61 131/152/61 134/153/61 130/164/61
f 128/165/62 132/156/62 131/148/62 127/150/62
f 129/166/63 133/158/63 132/156/63 128/165/63
f 130/164/64 134/153/64 133/158/64 129/166/64
o Legs.004
v 0.002492 0.000500 0.002412
v 0.002160 0.000500 0.002533
v 0.002039 0.000500 0.002201
v 0.002371 0.000500 0.002080
v 0.001359 0.012500 0.001884
v 0.001027 0.012500 0.002005
v 0.000906 0.012500 0.001673
v 0.001239 0.012500 0.001552
v -0.002039 0.000500 0.000299
v -0.002371 0.000500 0.000420
v -0.002492 0.000500 0.000088
v -0.002160 0.000500 -0.000033
v -0.000906 0.012500 0.000827
v -0.001239 0.012500 0.000948
v -0.001359 0.012500 0.000616
v -0.001027 0.012500 0.000495
v 0.000227 0.000500 0.001356
v -0.000106 0.000500 0.001477
v -0.000227 0.000500 0.001144
v 0.000106 0.000500 0.001023
v 0.000227 0.012500 0.001356
v -0.000106 0.012500 0.001477
v -0.000227 0.012500 0.001144
v 0.000106 0.012500 0.001023
v 0.000227 0.012500 0.001356
v -0.000106 0.012500 0.001477
v -0.000227 0.012500 0.001144
v 0.000106 0.012500 0.001023
v 0.000227 0.000500 0.001356
v -0.000106 0.000500 0.001477
v -0.000227 0.000500 0.001144
v 0.000106 0.000500 0.001023
v -0.000906 0.012500 0.000827
v -0.001239 0.012500 0.000948
v -0.001359 0.012500 0.000616
v -0.001027 0.012500 0.000495
v -0.000908 0.011381 0.000826
v -0.001249 0.011500 0.000971
v -0.001358 0.011619 0.000617
v -0.001017 0.011500 0.000472
v -0.002041 0.010381 0.000298
v -0.002382 0.010500 0.000443
v -0.002490 0.010619 0.000089
v -0.002150 0.010500 -0.000056
v -0.002039 0.000500 0.000299
v -0.002371 0.000500 0.000420
v -0.002492 0.000500 0.000088
v -0.002160 0.000500 -0.000033
v 0.001359 0.012500 0.001884
v 0.001027 0.012500 0.002005
v 0.000906 0.012500 0.001673
v 0.001239 0.012500 0.001552
v 0.001358 0.011619 0.001883
v 0.001017 0.011500 0.002028
v 0.000908 0.011381 0.001674
v 0.001249 0.011500 0.001529
v 0.002490 0.010619 0.002411
v 0.002150 0.010500 0.002556
v 0.002041 0.010381 0.002202
v 0.002382 0.010500 0.002057
v 0.002492 0.000500 0.002412
v 0.002160 0.000500 0.002533
v 0.002039 0.000500 0.002201
v 0.002371 0.000500 0.002080
vn -0.0000 -1.0000 -0.0000
vn -0.0000 1.0000 -0.0000
vn 0.9397 -0.0000 -0.3420
vn 0.3420 -0.0000 0.9397
vn -0.9397 -0.0000 0.3420
vn -0.3420 -0.0000 -0.9397
vn 0.9488 0.0074 -0.3158
vn 0.3679 0.0074 0.9298
vn -0.9480 0.0083 0.3183
vn -0.3655 0.0083 -0.9308
vn 0.7035 -0.5800 -0.4107
vn 0.1376 -0.5800 0.8029
vn -0.7035 0.5800 0.4107
vn -0.1376 0.5800 -0.8029
vn 0.9484 -0.0008 -0.3171
vn 0.3667 -0.0008 0.9303
vn -0.9485 -0.0008 0.3169
vn -0.3669 -0.0008 -0.9302
vn 0.9480 0.0083 -0.3183
vn 0.3655 0.0083 0.9308
vn -0.9488 0.0074 0.3158
vn -0.3679 0.0074 -0.9298
vn 0.7035 0.5800 -0.4107
vn 0.1376 0.5800 0.8029
vn -0.7035 -0.5800 0.4107
vn -0.1376 -0.5800 -0.8029
vn 0.9485 -0.0008 -0.3169
vn 0.3669 -0.0008 0.9302
vn -0.9484 -0.0008 0.3171
vn -0.3667 -0.0008 -0.9303
vt 0.333333 0.000000
vt 1.000000 0.000000
vt 0.000000 0.000000
vt 0.666667 0.000000
vt 0.000000 1.000000
vt 1.000000 1.000000
vt 1.000000 0.750000
vt 0.000000 0.750000
vt 0.000000 0.250000
vt 1.000000 0.250000
vt 0.000000 0.500000
vt 1.000000 0.500000
vt 0.333333 1.000000
vt 0.333333 0.750000
vt 0.333333 0.250000
vt 0.333333 0.500000
vt 0.666667 1.000000
vt 0.666667 0.750000
vt 0.666667 0.250000
vt 0.666667 0.500000
s 0
usemtl Metal
f 136/167/65 138/168/65 135/169/65
f 137/170/65 138/168/65 136/167/65
f 140/167/66 142/168/66 141/170/66
f 139/169/66 142/168/66 140/167/66
f 144/167/65 146/168/65 143/169/65
f 145/170/65 146/168/65 144/167/65
f 150/168/66 148/167/66 147/169/66
f 149/170/66 148/167/66 150/168/66
f 152/167/65 154/168/65 151/169/65
f 152/167/65 153/170/65 154/168/65
f 158/168/66 156/167/66 155/169/66
f 157/170/66 156/167/66 158/168/66
f 159/171/67 163/172/67 166/173/67 162/174/67
f 160/175/68 164/176/68 163/168/68 159/169/68
f 161/177/69 165/178/69 164/176/69 160/175/69
f 162/174/70 166/173/70 165/178/70 161/177/70
f 167/171/71 171/179/71 174/180/71 170/174/71
f 168/175/72 172/181/72 171/167/72 167/169/72
f 169/177/73 173/182/73 172/181/73 168/175/73
f 170/174/74 174/180/74 173/182/74 169/177/74
f 171/179/75 175/183/75 178/184/75 174/180/75
f 172/181/76 176/185/76 175/170/76 171/167/76
f 173/182/77 177/186/77 176/185/77 172/181/77
f 174/180/78 178/184/78 177/186/78 173/182/78
f 175/183/79 179/172/79 182/173/79 178/184/79
f 176/185/80 180/176/80 179/168/80 175/170/80
f 177/186/81 181/178/81 180/176/81 176/185/81
f 178/184/82 182/173/82 181/178/82 177/186/82
f 183/171/83 187/179/83 190/180/83 186/174/83
f 184/175/84 188/181/84 187/167/84 183/169/84
f 185/177/85 189/182/85 188/181/85 184/175/85
f 186/174/86 190/180/86 189/182/86 185/177/86
f 187/179/87 191/183/87 194/184/87 190/180/87
f 188/181/88 192/185/88 191/170/88 187/167/88
f 189/182/89 193/186/89 192/185/89 188/181/89
f 190/180/90 194/184/90 193/186/90 189/182/90
f 191/183/91 195/172/91 198/173/91 194/184/91
f 192/185/92 196/176/92 195/168/92 191/170/92
f 193/186/93 197/178/93 196/176/93 192/185/93
f 194/184/94 198/173/94 197/178/94 193/186/94
